<?xml version="1.0" encoding="UTF-8" standalone="no"?>
<!-- Created with Inkscape (http://www.inkscape.org/) -->

<svg
   version="1.1"
   id="svg1"
   width="983.03998"
   height="983.03998"
   viewBox="0 0 983.03998 983.03998"
   sodipodi:docname="logo-bolso-viajero.svg"
   inkscape:version="1.4 (86a8ad7, 2024-10-11)"
   xmlns:inkscape="http://www.inkscape.org/namespaces/inkscape"
   xmlns:sodipodi="http://sodipodi.sourceforge.net/DTD/sodipodi-0.dtd"
   xmlns="http://www.w3.org/2000/svg"
   xmlns:svg="http://www.w3.org/2000/svg">
  <defs
     id="defs1">
    <clipPath
       clipPathUnits="userSpaceOnUse"
       id="clipPath42">
      <path
         id="path43"
         style="fill:#ff0000;fill-opacity:1;fill-rule:nonzero;stroke:none"
         d="M 114.37695,42.445312 V 939.77148 h 733.5625 V 42.445312 Z M 532.76758,402.48047 c 0.48214,-0.0136 0.97229,0.0283 1.47265,0.14648 0.61188,0.25455 1.28844,0.39027 1.83594,0.76367 2.16576,1.47706 2.68551,4.15872 1.93945,6.51563 -0.37286,1.00454 -0.91691,1.90537 -1.5625,2.73633 0.4213,1.07269 0.16489,2.56107 -1.15234,4.05078 0.17164,0.29528 0.24991,0.42889 0.44922,0.76758 0.32108,0.54561 -2.57132,2.4827 -2.82617,2.73047 -0.90729,0.62273 -1.79341,1.27628 -2.67188,1.93945 -1.11425,0.95079 -2.22272,1.90751 -3.32617,2.87109 -2.30709,2.56702 -4.52475,5.22255 -7.04883,7.58203 -0.535,0.44049 -1.78172,1.56858 -2.46289,1.63868 -0.80599,0.083 -1.79024,0.24851 -2.51367,-0.0645 -0.85683,0.7198 -1.72427,1.42752 -2.58984,2.13672 -1.8528,1.80774 -3.66852,3.65346 -5.5625,5.41992 -0.41641,0.45433 -0.82314,0.91747 -1.24024,1.3711 -1.95773,1.61617 -3.2985,4.38053 -5.64258,5.55468 -0.56515,0.28312 -1.17816,0.45527 -1.76757,0.6836 -0.0761,-0.10996 -0.16193,-0.21459 -0.24219,-0.32227 -0.28902,1.43557 -1.24708,3.03584 -3.08789,4.5293 -1.74536,1.41602 -3.4099,2.92984 -5.11328,4.39648 -0.86883,0.71028 -1.61796,1.54039 -2.38477,2.35157 -0.0733,0.14888 -0.15255,0.29438 -0.22265,0.44531 -0.73636,1.58532 -1.71849,2.53614 -2.69532,2.98633 -0.36431,0.48202 -0.75929,0.93975 -1.11133,1.42968 -2.83645,3.90626 -5.8172,7.70197 -8.6582,11.60547 -2.16442,3.03308 -1.09907,1.51816 -3.19726,4.54883 -1.95074,2.8177 -4.24835,3.764 -6.03321,3.44922 -1.15924,1.88882 -2.37228,3.7445 -3.49414,5.65625 -1.00864,1.705 -2.03342,3.40069 -3.03906,5.10742 -0.16617,0.28202 -0.17919,0.92966 -0.49609,0.84766 -2.65474,-0.68702 -4.37965,-0.97707 -5.70704,-1.17188 -0.0914,0.158 -0.17769,0.31881 -0.26953,0.47657 -2.63693,4.47197 -5.1754,9.04268 -8.59179,12.98437 -0.90243,1.01776 -2.88937,3.53366 -4.24805,3.82422 -4.40037,0.94105 -6.99984,-0.0101 -7.2168,-4.88281 0.35636,-2.73064 1.37753,-5.27165 2.18555,-7.89258 0.76316,-2.21796 1.58484,-4.40589 2.47461,-6.57617 0.89672,-2.16851 1.36987,-4.4939 2.3164,-6.64649 0.88349,-2.17042 1.72274,-4.35439 2.55274,-6.54492 0.75036,-1.97926 1.63782,-3.89201 2.52344,-5.8125 0.99499,-2.05956 1.97526,-4.13953 3.26562,-6.03516 1.40506,-2.24686 2.992,-4.34863 4.73438,-6.34765 1.88825,-2.15729 3.86675,-4.24319 5.95312,-6.21094 1.05385,-1.00185 2.12968,-1.97957 3.19531,-2.96875 0.0975,-0.15685 0.27966,-0.45552 0.31836,-0.51758 3.11125,-4.69383 6.37689,-9.29206 9.80274,-13.76172 3.0926,-3.6841 6.43221,-7.15011 9.68164,-10.69531 2.28856,-2.6504 4.77211,-5.08764 7.63867,-7.10156 2.1444,-1.52447 4.55274,-2.54886 7.02734,-3.39453 1.64019,-0.36316 3.85765,-0.849 5.45508,0.0918 0.0279,-0.0209 0.0561,-0.0416 0.084,-0.0625 1.78036,-1.19685 3.55205,-2.40911 5.41406,-3.47852 1.93338,-1.19171 3.92276,-2.3117 6.00977,-3.21289 1.60058,-0.70366 3.21302,-1.39158 4.7207,-2.2832 1.78812,-0.93502 3.58571,-1.85002 5.47851,-2.56055 1.78703,-0.7443 3.58128,-1.4738 5.41016,-2.10938 1.41083,-0.41103 2.78989,-0.94363 4.23633,-0.98437 z m -3.11524,4.41797 c -0.0148,0.0628 -0.0148,0.11484 -0.0273,0.17578 0.0734,-0.0592 -0.0471,0.0689 0.0273,-0.17578 z" />
    </clipPath>
  </defs>
  <sodipodi:namedview
     id="namedview1"
     pagecolor="#ffffff"
     bordercolor="#000000"
     borderopacity="0.25"
     inkscape:showpageshadow="2"
     inkscape:pageopacity="0.0"
     inkscape:pagecheckerboard="0"
     inkscape:deskcolor="#d1d1d1"
     inkscape:zoom="0.5625407"
     inkscape:cx="415.08108"
     inkscape:cy="491.51999"
     inkscape:window-width="1366"
     inkscape:window-height="745"
     inkscape:window-x="-8"
     inkscape:window-y="-8"
     inkscape:window-maximized="1"
     inkscape:current-layer="layer4" />
  <g
     inkscape:groupmode="layer"
     id="layer4"
     inkscape:label="Image 2"
     style="display:inline;opacity:1;fill:#008080">
    <path
       id="path5"
       clip-path="url(#clipPath42)"
       style="display:inline;opacity:1;fill:#008080"
       d="m 499.60352,42.636719 c -11.08253,-0.52774 -22.30466,0.02704 -33.85938,1.804687 -46.21888,7.110596 -87.10406,10.665831 -106.6582,23.109375 -19.55414,12.443544 -21.33203,14.220703 -21.33203,14.220703 0,0 -33.77503,-33.77539 -58.66211,-33.77539 -24.88709,0 -47.99829,-8.887515 -69.33008,7.111328 -21.33179,15.998842 -30.21936,26.663573 -26.66406,40.884766 3.5553,14.221192 3.55468,10.666012 3.55468,10.666012 0,0 12.4439,-23.108455 31.99805,-28.441403 19.55414,-5.332947 55.10755,-10.665589 65.77344,-1.777344 7.36179,6.134822 9.51423,7.098078 10.2207,7.162109 -1.34439,0.121083 -60.25645,5.523706 -83.10351,26.613278 -23.10944,21.33179 -58.66272,44.4416 -55.10743,88.88282 3.5553,44.44123 3.55389,55.10687 19.55274,92.4375 15.99884,37.33063 99.54883,197.31836 99.54883,197.31836 0,0 -5.33222,81.77141 7.11132,161.76562 12.44355,79.99421 24.88672,106.66016 24.88672,106.66016 0,0 -65.77277,1.7776 -92.4375,-33.77539 -26.66474,-35.55298 -35.55334,-85.3285 -31.99804,-117.32618 3.5553,-31.99769 28.44336,-177.76367 28.44336,-177.76367 L 170.6543,343.08594 c 0,0 -65.77337,382.19549 -55.10742,426.63672 10.66589,44.44123 26.66441,95.99303 58.6621,113.76953 31.99768,17.77649 191.98633,21.33203 191.98633,21.33203 0,0 49.77362,31.99774 94.21485,33.77539 44.44123,1.77765 72.8845,5.33301 165.32226,-23.10938 92.43776,-28.44239 154.6562,-49.77472 177.76563,-76.43945 23.10944,-26.66474 44.4414,-135.10254 44.4414,-163.54492 0,-28.44239 -26.66595,-183.09649 -49.77539,-223.98242 C 775.05462,410.63751 737.72437,355.52906 716.39258,334.19727 695.06079,312.86548 679.0625,318.19922 679.0625,318.19922 l -12.44336,-30.2207 c 0,0 42.6626,-19.55353 28.44141,-60.43946 C 680.83935,186.65313 648.84223,95.992252 600.8457,72.882812 564.84831,55.550733 532.85111,44.219937 499.60352,42.636719 Z m 31.46484,356.914061 c 2.10016,-0.0628 4.22225,0.16282 6.36133,0.78125 5.9568,2.89511 6.64492,5.79525 4.02343,11.66797 -2.55268,5.06515 -5.90849,9.52133 -9.94726,13.51758 -4.9672,5.05216 -10.12539,9.89351 -15.67578,14.30859 -5.56184,4.87945 -11.37899,9.4431 -17.00977,14.24219 -5.84301,5.27065 -11.38408,10.87138 -16.99804,16.38281 -6.07217,6.42279 -11.82129,13.15301 -16.96485,20.34961 -5.47337,7.89139 -10.44026,16.10317 -14.3457,24.89844 -3.44207,7.98081 -6.34602,16.18647 -8.22656,24.6875 -1.35667,6.65962 -2.28761,13.38146 -2.97461,20.14258 -0.57153,5.85641 -0.85704,11.78294 -0.50391,17.66015 0.37957,7.14346 1.15344,14.25551 1.77344,21.38086 0.40382,6.48647 1.10368,12.98982 0.81445,19.49024 -0.31362,4.43902 -0.91407,8.86607 -2.52539,13.00781 0.0519,0.21116 0.11836,0.41173 0.16406,0.63086 0.0391,2.26879 -1.65678,3.48728 -3.66601,3.8125 -1.21141,0.18693 -2.38048,-0.15202 -3.47852,-0.62695 -0.62359,-0.29569 -1.16059,-0.72393 -1.7832,-1.01563 -0.84712,-0.17285 -1.87986,-1.03711 -2.61719,-1.73633 -1.06835,-0.97895 -1.72352,-2.26224 -2.25,-3.58789 -0.12331,-0.3701 -0.20919,-0.74931 -0.31055,-1.125 -0.23414,-0.33487 -0.52106,-0.62216 -0.72656,-0.98242 -1.56665,-2.77665 -2.61747,-5.72236 -3.18945,-8.86914 -0.65642,-4.3117 -1.39639,-8.62198 -1.53125,-12.99024 -0.47495,-5.22679 -0.92278,-10.45916 -0.58789,-15.71289 0.29499,-6.36012 0.48358,-12.72953 1.17187,-19.06445 0.81483,-6.60392 1.28282,-13.22816 1.88086,-19.85351 0.94348,-8.08155 2.11229,-16.14197 3.33594,-24.1836 1.79309,-9.72462 3.92796,-19.40654 6.93555,-28.83594 3.69332,-11.06525 8.66009,-21.59296 14.625,-31.62695 8.35863,-13.0439 17.42514,-25.71823 29.06836,-36.07812 11.16952,-10.00812 23.26709,-18.84915 36.96289,-25.14063 5.79037,-2.55831 11.89483,-5.34281 18.19531,-5.53125 z m -2.55469,5.68945 c -4.66868,0.75639 -9.18396,2.87836 -13.46875,4.76563 -8.18169,4.10564 -16.22391,8.71678 -23.59765,14.16992 -4.56837,3.37846 -7.69761,6.30634 -11.96094,10.06836 -11.24693,10.06955 -19.99382,22.34339 -28.08399,34.97852 -5.69426,9.64198 -10.60119,19.72977 -14.02343,30.39648 -0.68823,2.13825 -1.19301,4.32731 -1.79493,6.49024 1.5095,0.3313 2.5422,0.56199 2.84961,0.90234 0.18402,-0.34702 0.35637,-0.70023 0.54493,-1.04492 0.71798,-0.64214 1.19695,-2.03431 2.15429,-1.92774 0.55214,0.0615 1.01135,0.15495 1.42969,0.26367 0.41147,-0.82887 0.76976,-1.68173 1.17969,-2.51171 1.18258,-2.34448 2.36768,-4.68725 3.53906,-7.03711 0.56678,-1.64636 1.122,-3.29662 1.69336,-4.94141 1.05028,-3.08123 2.11497,-6.15639 3.0293,-9.28125 0.6552,-2.23928 1.87081,-3.314 3.04882,-3.4668 0.73087,-0.0948 1.4445,0.16729 2.00196,0.72461 2.7546,-5.00539 5.48313,-10.02584 8.4082,-14.93359 2.86638,-4.69729 5.7286,-9.41118 8.89258,-13.91602 1.22925,-1.75018 2.61024,-2.43899 3.75,-2.38086 2.1759,0.111 3.47328,2.94337 1.1582,6.30664 -2.97103,4.3162 -5.70774,8.7916 -8.43555,13.26368 -2.63423,4.42225 -5.19046,8.8902 -7.70312,13.38281 1.06517,0.7084 0.56371,1.08534 -0.62891,3.24609 -2.47008,4.40088 -4.77175,8.89245 -7.14062,13.34766 1.72317,-2.76176 3.40882,-5.54476 5.25781,-8.23438 5.21238,-7.47475 11.09624,-14.47407 17.40039,-21.04687 5.63027,-5.66973 11.3303,-11.27533 17.18555,-16.71289 5.63651,-4.84923 11.53931,-9.37229 17.12695,-14.27735 5.39996,-4.40771 10.46513,-9.15463 15.39844,-14.07226 1.32625,-1.38427 2.52164,-2.86678 3.7207,-4.3457 -0.32257,-0.5648 -0.45727,-1.28979 -0.32617,-2.11719 -0.99623,-0.38328 -1.73717,-0.67637 -2.68555,-1.65821 -0.17251,-0.17858 -0.33067,-0.36521 -0.47851,-0.55468 -1.41127,-0.68291 -1.93461,-2.4399 -1.26563,-3.96289 0.0328,-0.53606 0.13873,-1.08027 0.32227,-1.62696 0.18716,-0.55745 0.58227,-1.02209 0.87305,-1.5332 0.1706,-0.18448 0.34205,-0.3563 0.51367,-0.5293 0.0345,-0.0644 0.0755,-0.12906 0.11523,-0.19336 z m 5.78321,4.08008 c -0.0878,-0.007 -0.20214,0.0338 -0.29297,0.16016 -0.041,0.057 -0.0773,0.11642 -0.11133,0.17773 0.009,7.8e-4 0.0148,8e-4 0.0234,0.002 0.6332,-0.0757 0.57388,-0.32363 0.38086,-0.33985 z" />
  </g>
</svg>
